<svg xmlns="http://www.w3.org/2000/svg" width="112.31" height="112.31" viewBox="0 0 112.31 112.31">
  <g id="icon_fax" opacity="0.52">
    <ellipse id="Ellipse_7" data-name="Ellipse 7" cx="56.155" cy="56.155" rx="56.155" ry="56.155"/>
    <g id="printer-" transform="translate(28.886 28.886)">
      <g id="Group_265" data-name="Group 265" transform="translate(0 0)">
        <path id="Path_283" data-name="Path 283" d="M4,17.721V28.553H32.886V10.5H4Zm3.611-3.611H29.275v3.611H7.611Zm0,7.221H29.275v3.611H7.611Z" transform="translate(10.443 25.607)" fill="#fff"/>
        <path id="Path_284" data-name="Path 284" d="M32.886,11.332V.5H4V18.553H32.886Z" transform="translate(10.443 -0.5)" fill="#fff"/>
        <path id="Path_285" data-name="Path 285" d="M50.55,3.5H46.939V14.332H10.832V3.5H7.221A7.766,7.766,0,0,0,0,10.721V28.775A7.766,7.766,0,0,0,7.221,36h3.611V25.164H46.939V36H50.55a7.766,7.766,0,0,0,7.221-7.221V10.721A7.766,7.766,0,0,0,50.55,3.5Z" transform="translate(0 7.332)" fill="#fff"/>
      </g>
    </g>
  </g>
</svg>
