<svg xmlns="http://www.w3.org/2000/svg" width="32.335" height="32.335" viewBox="0 0 32.335 32.335">
  <g id="icon_twitter" transform="translate(0.5 0.5)" opacity="0.523">
    <g id="Group_200" data-name="Group 200">
      <path id="Path_271" data-name="Path 271" d="M15.668,0A15.667,15.667,0,1,0,31.335,15.667,15.685,15.685,0,0,0,15.668,0Zm6.989,12.082c.007.155.011.312.011.468A10.258,10.258,0,0,1,6.879,21.19,7.282,7.282,0,0,0,12.218,19.7a3.61,3.61,0,0,1-3.369-2.5,3.62,3.62,0,0,0,1.628-.061,3.607,3.607,0,0,1-2.892-3.536c0-.015,0-.031,0-.045A3.591,3.591,0,0,0,9.218,14,3.612,3.612,0,0,1,8.1,9.186a10.239,10.239,0,0,0,7.432,3.769,3.609,3.609,0,0,1,6.145-3.29,7.2,7.2,0,0,0,2.291-.875,3.622,3.622,0,0,1-1.588,2,7.169,7.169,0,0,0,2.071-.567A7.254,7.254,0,0,1,22.657,12.082Z" stroke="#707070" stroke-width="1"/>
    </g>
  </g>
</svg>
