<svg xmlns="http://www.w3.org/2000/svg" width="112.31" height="112.31" viewBox="0 0 112.31 112.31">
  <g id="icon_website" opacity="0.523">
    <ellipse id="Ellipse_8" data-name="Ellipse 8" cx="56.155" cy="56.155" rx="56.155" ry="56.155" transform="translate(0 0)"/>
    <g id="website" transform="translate(18.565 28.507)">
      <g id="Group_202" data-name="Group 202" transform="translate(0 0)">
        <g id="Group_201" data-name="Group 201">
          <path id="Path_272" data-name="Path 272" d="M70.4,8.533H5.03A5.036,5.036,0,0,0,0,13.563V55.046A1.258,1.258,0,0,0,1.257,56.3H74.17a1.258,1.258,0,0,0,1.257-1.257V13.563A5.035,5.035,0,0,0,70.4,8.533Zm2.515,45.256H2.514V13.563A2.518,2.518,0,0,1,5.03,11.047H70.4a2.518,2.518,0,0,1,2.515,2.515Z" transform="translate(0 -8.533)" fill="#fff"/>
        </g>
      </g>
      <g id="Group_204" data-name="Group 204" transform="translate(0 45.256)">
        <g id="Group_203" data-name="Group 203">
          <path id="Path_273" data-name="Path 273" d="M74.17,315.733H1.257A1.258,1.258,0,0,0,0,316.99v6.284a5.036,5.036,0,0,0,5.03,5.03H70.4a5.036,5.036,0,0,0,5.03-5.03V316.99A1.258,1.258,0,0,0,74.17,315.733Zm-1.257,7.542A2.518,2.518,0,0,1,70.4,325.79H5.03a2.518,2.518,0,0,1-2.515-2.516v-5.027h70.4v5.027Z" transform="translate(0 -315.733)" fill="#fff"/>
        </g>
      </g>
      <g id="Group_206" data-name="Group 206" transform="translate(32.685 50.285)">
        <g id="Group_205" data-name="Group 205">
          <path id="Path_274" data-name="Path 274" d="M230.667,349.867h-7.543a1.257,1.257,0,0,0,0,2.514h7.543a1.257,1.257,0,0,0,0-2.514Z" transform="translate(-221.867 -349.867)" fill="#fff"/>
        </g>
      </g>
      <g id="Group_208" data-name="Group 208" transform="translate(5.029 5.029)">
        <g id="Group_207" data-name="Group 207">
          <path id="Path_275" data-name="Path 275" d="M98.247,42.667H35.391a1.258,1.258,0,0,0-1.257,1.257V84.152a1.258,1.258,0,0,0,1.257,1.257H98.247A1.258,1.258,0,0,0,99.5,84.152V43.924A1.258,1.258,0,0,0,98.247,42.667ZM96.99,82.895H36.648V45.181H96.99V82.895Z" transform="translate(-34.134 -42.667)" fill="#fff"/>
        </g>
      </g>
      <g id="Group_214" data-name="Group 214" transform="translate(44.007 26.399)">
        <g id="Group_213" data-name="Group 213">
          <path id="Path_278" data-name="Path 278" d="M314.786,198.372l-3.035-3.035,1.688-1.688a1.257,1.257,0,0,0-.527-2.093l-12.571-3.771a1.258,1.258,0,0,0-1.565,1.565l3.771,12.571a1.256,1.256,0,0,0,2.093.528l1.778-1.779,3.034,3.036a1.257,1.257,0,0,0,1.778,0l3.555-3.556A1.256,1.256,0,0,0,314.786,198.372Zm-4.444,2.668-2.763-2.764a1.643,1.643,0,0,0-2.321,0l-.907.908-2.5-8.318,8.318,2.5-.973.973a1.425,1.425,0,0,0,0,2.013l2.917,2.916Z" transform="translate(-298.723 -187.731)" fill="#fff"/>
        </g>
      </g>
      <g id="Group_216" data-name="Group 216" transform="translate(16.343 10.057)">
        <g id="Group_215" data-name="Group 215">
          <path id="Path_279" data-name="Path 279" d="M147.39,76.8h-35.2a1.258,1.258,0,0,0-1.257,1.257v6.286a1.258,1.258,0,0,0,1.257,1.257h35.2a1.258,1.258,0,0,0,1.257-1.257V78.057A1.258,1.258,0,0,0,147.39,76.8Zm-1.257,6.286H113.448V79.314h32.685Z" transform="translate(-110.934 -76.8)" fill="#fff"/>
        </g>
      </g>
      <g id="Group_218" data-name="Group 218" transform="translate(21.371 23.885)">
        <g id="Group_217" data-name="Group 217">
          <path id="Path_280" data-name="Path 280" d="M156.381,170.667H146.324a1.258,1.258,0,0,0-1.257,1.257v5.028a1.258,1.258,0,0,0,1.257,1.257h10.057a1.258,1.258,0,0,0,1.257-1.257v-5.028A1.258,1.258,0,0,0,156.381,170.667Zm-1.257,5.028h-7.543v-2.514h7.543Z" transform="translate(-145.067 -170.667)" fill="#fff"/>
        </g>
      </g>
      <g id="Group_220" data-name="Group 220" transform="translate(16.343 10.057)">
        <g id="Group_219" data-name="Group 219">
          <path id="Path_281" data-name="Path 281" d="M147.39,76.8h-35.2a1.258,1.258,0,0,0-1.257,1.257v23.885a1.258,1.258,0,0,0,1.257,1.257h29.927a1.258,1.258,0,0,0,1.2-1.619l-1.591-5.306,5.3,1.59a1.258,1.258,0,0,0,1.618-1.2v-18.6A1.258,1.258,0,0,0,147.39,76.8Zm-1.257,18.17L140.216,93.2a1.258,1.258,0,0,0-1.565,1.566l1.777,5.924h-26.98V79.314h32.685Z" transform="translate(-110.934 -76.8)" fill="#fff"/>
        </g>
      </g>
    </g>
  </g>
</svg>
