<svg xmlns="http://www.w3.org/2000/svg" xmlns:xlink="http://www.w3.org/1999/xlink" width="112.31" height="112.31" viewBox="0 0 112.31 112.31">
  <defs>
    <clipPath id="clip-path">
      <ellipse id="Ellipse_4" data-name="Ellipse 4" cx="56.155" cy="56.155" rx="56.155" ry="56.155"/>
    </clipPath>
  </defs>
  <g id="icon_line" opacity="0.523">
    <path id="Path_282" data-name="Path 282" d="M56.155,0A56.155,56.155,0,1,1,0,56.155,56.155,56.155,0,0,1,56.155,0Z"/>
    <g id="Ellipse_3" data-name="Ellipse 3" transform="translate(16.136 16.383)" fill="#fff" stroke="#707070" stroke-width="1">
      <ellipse cx="39.525" cy="39.772" rx="39.525" ry="39.772" stroke="none"/>
      <ellipse cx="39.525" cy="39.772" rx="39.025" ry="39.272" fill="none"/>
    </g>
    <g id="Mask_Group_4" data-name="Mask Group 4" clip-path="url(#clip-path)">
      <g id="Group_221" data-name="Group 221" transform="translate(11.289 11.289)">
        <path id="Path_261" data-name="Path 261" d="M180.389,165.175h-.736a1.315,1.315,0,0,0-1.314,1.316v13.444a1.315,1.315,0,0,0,1.314,1.316h.736a1.317,1.317,0,0,0,1.316-1.316V166.491A1.317,1.317,0,0,0,180.389,165.175Z" transform="translate(-143.154 -132.587)"/>
        <path id="Path_262" data-name="Path 262" d="M219.644,165.175a1.684,1.684,0,0,0-1.683,1.683v7.764s-6.722-8.768-6.824-8.882a1.675,1.675,0,0,0-1.32-.562,1.728,1.728,0,0,0-1.618,1.75v12.641a1.683,1.683,0,0,0,3.366,0v-7.718s6.824,8.845,6.925,8.939a1.674,1.674,0,0,0,1.138.462,1.745,1.745,0,0,0,1.7-1.754V166.858A1.683,1.683,0,0,0,219.644,165.175Z" transform="translate(-167.123 -132.587)"/>
        <path id="Path_263" data-name="Path 263" d="M127.456,177.882H122.4V166.857a1.683,1.683,0,0,0-3.366,0v12.71a1.683,1.683,0,0,0,1.683,1.683h6.734a1.684,1.684,0,0,0,0-3.368Z" transform="translate(-95.553 -132.586)"/>
        <path id="Path_264" data-name="Path 264" d="M295.955,168.541a1.683,1.683,0,1,0,0-3.366h-6.734a1.683,1.683,0,0,0-1.683,1.683v12.71a1.683,1.683,0,0,0,1.683,1.683h6.734a1.684,1.684,0,0,0,0-3.368H290.9V174.9h5.051a1.683,1.683,0,0,0,0-3.366H290.9v-2.989Z" transform="translate(-230.81 -132.587)"/>
        <path id="Path_265" data-name="Path 265" d="M0,0V89.913H89.913V0ZM77.85,41.336a16.15,16.15,0,0,1-.26,1.991,21.977,21.977,0,0,1-2.515,7.211c-.588,1.063-3.474,5.108-4.36,6.173-4.865,5.862-13.011,12.625-26.635,19.2A1.8,1.8,0,0,1,41.512,74.1l.687-6.179a1.79,1.79,0,0,0-1.586-1.979C24.486,64.255,12.041,53.28,12.041,39.994c0-14.456,14.732-26.175,32.907-26.175,17.662,0,32.074,11.068,32.873,24.96A25.385,25.385,0,0,1,77.85,41.336Z"/>
      </g>
    </g>
  </g>
</svg>
